<?xml version='1.0' encoding='utf-8'?>
<svg xmlns="http://www.w3.org/2000/svg" viewBox="0 0 512 512" width="64" height="64"><g fill="#000000" fill-opacity="0.98" stroke="None"><path d="M 254.00 512.00  L 258.00 512.00 C 291.43 482.13 321.71 445.67 345.13 416.08 C 368.55 386.50 389.01 355.73 405.57 327.23 C 422.13 298.73 431.63 272.17 442.76 237.75 C 453.88 203.33 445.17 151.03 434.29 122.70 C 423.40 94.36 399.26 57.27 367.70 35.30 C 336.13 13.33 314.27 8.06 273.00 0.00 L 245.00 0.00 C 200.57 5.31 177.56 13.38 145.75 35.61 C 113.95 57.83 87.12 94.07 76.39 123.25 C 65.66 152.43 59.61 202.30 69.41 237.25 C 79.21 272.20 91.46 299.59 108.20 328.75 C 124.94 357.91 143.60 386.86 167.74 416.25 C 191.87 445.63 218.55 480.95 254.00 512.00 M 240.00 26.00  C 261.48 22.34 284.15 28.84 302.25 32.80 C 320.35 36.76 336.15 45.58 351.30 55.71 C 366.46 65.85 387.62 85.60 397.71 101.30 C 407.80 117.00 414.97 132.25 420.57 149.77 C 426.18 167.28 427.93 195.46 426.07 216.07 C 424.22 236.69 417.53 255.19 410.81 271.25 C 404.09 287.32 389.32 305.68 372.25 322.25 C 355.17 338.81 342.22 347.09 324.75 354.76 C 307.29 362.42 292.96 365.89 271.25 368.59 C 249.55 371.30 226.11 366.98 208.75 362.20 C 191.40 357.42 175.99 350.47 160.25 340.61 C 144.50 330.75 125.50 309.49 114.61 294.25 C 103.72 279.00 96.07 263.02 90.09 244.90 C 84.12 226.78 84.20 199.21 85.77 177.77 C 87.34 156.33 93.88 139.48 101.13 123.08 C 108.38 106.68 121.27 89.13 138.75 72.75 C 156.23 56.37 168.91 47.92 186.25 40.24 C 203.59 32.56 218.38 29.68 240.00 26.00 Z" /></g><g transform="translate(256,256) scale(0.45) translate(-256,-400)"><g fill="#000000" fill-opacity="1.00" stroke="None">
<path d=" M 424.00 176.00  C 419.20 161.79 408.18 151.25 401.39 137.75 C 394.61 124.26 384.24 109.49 367.92 102.13 C 351.60 94.77 325.16 95.79 299.00 96.00 C 272.84 96.21 234.01 96.11 208.00 96.00 C 181.99 95.89 158.11 94.81 142.77 102.42 C 127.43 110.04 116.89 125.15 110.09 138.08 C 103.29 151.01 92.99 162.50 88.00 176.00 C 70.53 178.40 39.54 168.67 32.80 186.75 C 26.06 204.83 46.79 210.65 63.00 208.00 C 54.00 224.24 41.11 234.56 35.21 250.77 C 29.31 266.98 33.83 304.17 32.00 328.00 C 30.17 351.83 43.76 367.00 64.00 368.00 C 60.69 387.23 68.14 409.40 84.23 413.42 C 100.32 417.45 125.42 419.12 141.30 413.30 C 157.19 407.48 162.77 386.57 160.00 368.00 C 224.00 368.00 288.00 368.00 352.00 368.00 C 348.69 387.02 355.96 409.48 372.23 413.42 C 388.50 417.36 413.34 419.17 429.30 413.30 C 445.27 407.44 450.70 386.61 448.00 368.00 C 468.76 366.18 481.64 352.33 480.00 329.00 C 478.36 305.67 482.55 266.94 476.57 250.77 C 470.59 234.60 458.21 224.07 449.00 208.00 C 467.04 212.99 486.15 201.17 478.59 184.75 C 471.02 168.33 442.04 179.33 424.00 176.00 M 395.00 188.00  C 381.03 193.50 376.38 202.22 359.75 205.76 C 343.13 209.30 317.39 207.83 295.00 208.00 C 272.61 208.17 238.39 208.11 216.00 208.00 C 193.61 207.89 169.26 209.18 152.75 205.80 C 136.25 202.43 131.14 193.79 117.00 188.00 C 123.50 177.29 128.80 167.33 135.71 157.70 C 142.62 148.06 144.40 134.81 158.77 130.42 C 173.14 126.04 200.04 128.33 220.00 128.00 C 239.96 127.67 271.01 127.94 291.00 128.00 C 310.99 128.06 338.19 126.40 352.77 130.57 C 367.34 134.75 369.26 147.32 376.19 157.25 C 383.13 167.17 388.29 177.06 395.00 188.00 M 98.00 272.00  C 116.53 268.60 131.68 284.75 126.88 302.90 C 122.08 321.05 98.99 324.29 86.75 312.25 C 74.52 300.20 80.55 275.21 98.00 272.00 M 402.00 272.00  C 420.53 268.60 435.69 284.75 430.88 302.90 C 426.08 321.05 402.99 324.29 390.75 312.25 C 378.52 300.21 384.55 275.21 402.00 272.00 Z" />
</g>



</g></svg>