<?xml version='1.0' encoding='utf-8'?>
<svg xmlns="http://www.w3.org/2000/svg" viewBox="0 0 512 512" width="64" height="64"><g fill="#000000" fill-opacity="0.98" stroke="None"><path d="M 254.00 512.00  L 258.00 512.00 C 291.43 482.13 321.71 445.67 345.13 416.08 C 368.55 386.50 389.01 355.73 405.57 327.23 C 422.13 298.73 431.63 272.17 442.76 237.75 C 453.88 203.33 445.17 151.03 434.29 122.70 C 423.40 94.36 399.26 57.27 367.70 35.30 C 336.13 13.33 314.27 8.06 273.00 0.00 L 245.00 0.00 C 200.57 5.31 177.56 13.38 145.75 35.61 C 113.95 57.83 87.12 94.07 76.39 123.25 C 65.66 152.43 59.61 202.30 69.41 237.25 C 79.21 272.20 91.46 299.59 108.20 328.75 C 124.94 357.91 143.60 386.86 167.74 416.25 C 191.87 445.63 218.55 480.95 254.00 512.00 M 240.00 26.00  C 261.48 22.34 284.15 28.84 302.25 32.80 C 320.35 36.76 336.15 45.58 351.30 55.71 C 366.46 65.85 387.62 85.60 397.71 101.30 C 407.80 117.00 414.97 132.25 420.57 149.77 C 426.18 167.28 427.93 195.46 426.07 216.07 C 424.22 236.69 417.53 255.19 410.81 271.25 C 404.09 287.32 389.32 305.68 372.25 322.25 C 355.17 338.81 342.22 347.09 324.75 354.76 C 307.29 362.42 292.96 365.89 271.25 368.59 C 249.55 371.30 226.11 366.98 208.75 362.20 C 191.40 357.42 175.99 350.47 160.25 340.61 C 144.50 330.75 125.50 309.49 114.61 294.25 C 103.72 279.00 96.07 263.02 90.09 244.90 C 84.12 226.78 84.20 199.21 85.77 177.77 C 87.34 156.33 93.88 139.48 101.13 123.08 C 108.38 106.68 121.27 89.13 138.75 72.75 C 156.23 56.37 168.91 47.92 186.25 40.24 C 203.59 32.56 218.38 29.68 240.00 26.00 Z" /></g><g transform="translate(256,256) scale(0.45) translate(-256,-400)"><g fill="#000000" fill-opacity="1.00" stroke="None">
<path d=" M 146.00 512.00  L 366.00 512.00 C 383.82 506.71 381.30 486.59 381.00 471.00 C 380.70 455.41 377.39 432.21 390.70 423.70 C 404.01 415.18 411.45 407.76 423.08 399.08 C 434.71 390.41 444.97 383.82 455.25 374.25 C 465.52 364.68 480.08 362.22 485.92 347.92 C 491.77 333.63 486.86 309.66 488.00 293.00 C 489.14 276.34 487.78 252.81 488.00 236.00 C 488.22 219.19 485.68 200.51 483.00 185.00 C 480.33 169.48 474.55 155.62 469.22 141.78 C 463.90 127.94 457.18 116.55 449.25 104.75 C 441.31 92.95 434.35 82.87 424.25 72.75 C 414.15 62.64 405.67 54.00 394.25 45.75 C 382.83 37.50 371.84 30.62 358.77 24.23 C 345.71 17.84 332.26 12.40 317.78 8.22 C 303.29 4.04 283.94 1.97 269.00 0.00 L 243.00 0.00 C 228.05 1.96 208.72 4.05 194.22 8.22 C 179.73 12.39 166.31 17.86 153.23 24.23 C 140.15 30.60 129.16 37.46 117.75 45.75 C 106.34 54.04 97.87 62.63 87.75 72.75 C 77.63 82.87 70.55 92.87 62.75 104.75 C 54.95 116.64 48.03 127.89 42.77 141.77 C 37.51 155.66 31.66 169.46 29.00 185.00 C 26.33 200.53 23.82 219.17 24.00 236.00 C 24.18 252.83 22.97 276.32 24.00 293.00 C 25.03 309.68 20.49 333.57 26.08 347.92 C 31.66 362.28 46.43 364.55 56.75 374.25 C 67.08 383.94 77.23 390.39 88.92 399.08 C 100.60 407.77 107.95 415.18 121.25 423.75 C 134.55 432.31 131.34 455.35 131.00 471.00 C 130.66 486.65 128.20 506.67 146.00 512.00 M 167.00 215.00  C 213.67 220.64 239.54 278.89 210.75 316.75 C 181.95 354.60 123.30 350.16 102.03 306.97 C 80.75 263.79 116.20 208.86 167.00 215.00 M 361.00 215.00  C 408.20 220.70 432.45 278.66 404.25 316.25 C 376.05 353.84 317.60 350.90 295.70 307.30 C 273.79 263.71 310.57 208.90 361.00 215.00 M 260.00 335.00  C 270.38 338.15 270.60 356.06 277.77 362.23 C 284.94 368.40 289.17 390.47 274.98 389.98 C 260.78 389.48 244.38 393.57 231.92 388.08 C 219.47 382.58 232.41 365.09 236.77 357.77 C 241.13 350.45 246.85 331.01 260.00 335.00 Z" />
</g>




</g></svg>