<?xml version='1.0' encoding='utf-8'?>
<svg xmlns="http://www.w3.org/2000/svg" viewBox="0 0 512 512" width="64" height="64"><g fill="#000000" fill-opacity="0.98" stroke="None"><path d="M 254.00 512.00  L 258.00 512.00 C 291.43 482.13 321.71 445.67 345.13 416.08 C 368.55 386.50 389.01 355.73 405.57 327.23 C 422.13 298.73 431.63 272.17 442.76 237.75 C 453.88 203.33 445.17 151.03 434.29 122.70 C 423.40 94.36 399.26 57.27 367.70 35.30 C 336.13 13.33 314.27 8.06 273.00 0.00 L 245.00 0.00 C 200.57 5.31 177.56 13.38 145.75 35.61 C 113.95 57.83 87.12 94.07 76.39 123.25 C 65.66 152.43 59.61 202.30 69.41 237.25 C 79.21 272.20 91.46 299.59 108.20 328.75 C 124.94 357.91 143.60 386.86 167.74 416.25 C 191.87 445.63 218.55 480.95 254.00 512.00 M 240.00 26.00  C 261.48 22.34 284.15 28.84 302.25 32.80 C 320.35 36.76 336.15 45.58 351.30 55.71 C 366.46 65.85 387.62 85.60 397.71 101.30 C 407.80 117.00 414.97 132.25 420.57 149.77 C 426.18 167.28 427.93 195.46 426.07 216.07 C 424.22 236.69 417.53 255.19 410.81 271.25 C 404.09 287.32 389.32 305.68 372.25 322.25 C 355.17 338.81 342.22 347.09 324.75 354.76 C 307.29 362.42 292.96 365.89 271.25 368.59 C 249.55 371.30 226.11 366.98 208.75 362.20 C 191.40 357.42 175.99 350.47 160.25 340.61 C 144.50 330.75 125.50 309.49 114.61 294.25 C 103.72 279.00 96.07 263.02 90.09 244.90 C 84.12 226.78 84.20 199.21 85.77 177.77 C 87.34 156.33 93.88 139.48 101.13 123.08 C 108.38 106.68 121.27 89.13 138.75 72.75 C 156.23 56.37 168.91 47.92 186.25 40.24 C 203.59 32.56 218.38 29.68 240.00 26.00 Z" /></g><g transform="translate(256,256) scale(0.5) translate(-256,-400)"><g fill="#000000" fill-opacity="0.99" stroke="None">
<path d=" M 248.00 21.00  C 231.09 18.79 223.16 31.98 222.40 46.25 C 221.64 60.53 215.05 73.02 212.40 86.25 C 209.75 99.49 204.51 113.51 200.40 126.25 C 196.29 139.00 192.72 151.47 187.80 163.75 C 182.88 176.03 179.44 188.06 174.91 199.90 C 170.37 211.74 164.20 223.24 162.40 237.25 C 160.59 251.26 161.43 269.80 159.59 283.25 C 157.75 296.70 154.46 310.80 150.21 322.77 C 145.96 334.74 142.42 347.73 132.00 357.00 C 140.86 385.08 151.87 412.18 160.00 440.00 C 174.05 430.57 185.40 427.62 200.25 420.26 C 215.09 412.91 226.17 412.31 240.30 398.30 C 254.43 384.29 251.19 358.95 251.00 331.00 C 250.81 303.05 251.10 268.25 251.00 239.00 C 250.90 209.75 251.07 176.60 251.00 147.00 C 225.38 149.44 229.08 182.15 223.20 202.75 C 217.32 223.35 216.46 246.85 205.00 265.00 C 202.86 263.58 201.05 265.42 199.00 264.00 C 201.05 254.25 206.60 241.88 209.41 229.75 C 212.22 217.62 215.02 207.96 217.40 195.75 C 219.78 183.55 221.64 171.59 224.21 159.23 C 226.79 146.87 241.36 139.89 252.00 138.00 C 251.29 118.33 252.94 95.34 252.00 76.00 C 251.06 56.66 255.61 36.45 248.00 21.00 Z" />
</g>
<g fill="#000000" fill-opacity="0.99" stroke="None">
<path d=" M 381.00 358.00  C 372.64 349.01 368.15 339.17 363.35 328.70 C 358.55 318.23 358.59 306.63 355.71 294.30 C 352.84 281.98 352.08 268.99 351.93 255.08 C 351.78 241.16 348.52 227.97 344.35 216.70 C 340.18 205.42 337.15 194.41 332.71 183.30 C 328.28 172.20 323.73 161.09 320.13 149.92 C 316.53 138.75 311.47 125.77 308.71 114.30 C 305.95 102.83 299.18 89.74 297.39 77.75 C 295.61 65.77 290.62 58.21 289.40 44.75 C 288.17 31.29 281.51 19.27 265.00 21.00 C 264.59 23.22 262.68 24.50 261.00 26.00 C 262.67 63.05 262.67 101.92 261.00 139.00 C 278.78 138.91 289.09 153.65 290.61 170.25 C 292.12 186.84 296.48 200.32 299.69 216.30 C 302.91 232.28 307.16 247.53 314.00 260.00 C 307.03 271.23 304.06 256.30 301.71 250.30 C 299.36 244.29 296.52 234.93 294.59 226.75 C 292.67 218.57 290.79 211.42 289.76 204.25 C 288.73 197.08 285.51 189.38 284.40 181.75 C 283.28 174.12 282.92 166.76 280.35 159.70 C 277.79 152.64 269.27 145.70 261.00 148.00 C 262.98 176.88 261.81 209.98 262.00 239.00 C 262.19 268.02 262.02 303.24 262.00 331.00 C 261.98 358.76 257.86 383.97 273.25 398.75 C 288.63 413.54 298.21 413.00 313.70 420.29 C 329.18 427.57 337.66 431.55 353.00 440.00 C 361.06 411.53 370.89 385.79 381.00 358.00 Z" />
</g>
<g fill="#000000" fill-opacity="0.99" stroke="None">
<path d=" M 114.00 334.00  C 88.47 343.83 64.89 352.92 39.00 362.00 C 53.89 406.10 69.45 448.56 84.00 493.00 C 110.18 483.93 133.37 473.44 159.00 466.00 C 143.73 421.14 127.46 379.25 114.00 334.00 Z" />
</g>
<g fill="#000000" fill-opacity="0.99" stroke="None">
<path d=" M 401.00 335.00  C 394.26 344.99 392.18 356.18 388.26 367.25 C 384.35 378.31 380.42 388.11 376.40 399.25 C 372.38 410.39 369.85 421.29 365.59 432.25 C 361.33 443.20 358.09 453.74 354.00 466.00 C 380.65 473.66 402.92 484.24 429.00 493.00 C 441.86 449.00 461.11 404.53 473.00 361.00 C 448.28 353.89 424.24 342.97 401.00 335.00 Z" />
</g>
</g></svg>