<?xml version='1.0' encoding='utf-8'?>
<svg xmlns="http://www.w3.org/2000/svg" viewBox="0 0 512 512" width="64" height="64"><g fill="#000000" fill-opacity="0.98" stroke="None"><path d="M 254.00 512.00  L 258.00 512.00 C 291.43 482.13 321.71 445.67 345.13 416.08 C 368.55 386.50 389.01 355.73 405.57 327.23 C 422.13 298.73 431.63 272.17 442.76 237.75 C 453.88 203.33 445.17 151.03 434.29 122.70 C 423.40 94.36 399.26 57.27 367.70 35.30 C 336.13 13.33 314.27 8.06 273.00 0.00 L 245.00 0.00 C 200.57 5.31 177.56 13.38 145.75 35.61 C 113.95 57.83 87.12 94.07 76.39 123.25 C 65.66 152.43 59.61 202.30 69.41 237.25 C 79.21 272.20 91.46 299.59 108.20 328.75 C 124.94 357.91 143.60 386.86 167.74 416.25 C 191.87 445.63 218.55 480.95 254.00 512.00 M 240.00 26.00  C 261.48 22.34 284.15 28.84 302.25 32.80 C 320.35 36.76 336.15 45.58 351.30 55.71 C 366.46 65.85 387.62 85.60 397.71 101.30 C 407.80 117.00 414.97 132.25 420.57 149.77 C 426.18 167.28 427.93 195.46 426.07 216.07 C 424.22 236.69 417.53 255.19 410.81 271.25 C 404.09 287.32 389.32 305.68 372.25 322.25 C 355.17 338.81 342.22 347.09 324.75 354.76 C 307.29 362.42 292.96 365.89 271.25 368.59 C 249.55 371.30 226.11 366.98 208.75 362.20 C 191.40 357.42 175.99 350.47 160.25 340.61 C 144.50 330.75 125.50 309.49 114.61 294.25 C 103.72 279.00 96.07 263.02 90.09 244.90 C 84.12 226.78 84.20 199.21 85.77 177.77 C 87.34 156.33 93.88 139.48 101.13 123.08 C 108.38 106.68 121.27 89.13 138.75 72.75 C 156.23 56.37 168.91 47.92 186.25 40.24 C 203.59 32.56 218.38 29.68 240.00 26.00 Z" /></g><g transform="translate(256,256) scale(0.45) translate(-256,-380)"><g fill="#000000" fill-opacity="1.00" stroke="None">
<path d=" M 0.00 167.00  L 0.00 191.00 C 3.17 208.84 6.79 225.13 12.57 240.77 C 18.36 256.40 25.12 269.35 34.59 283.75 C 44.05 298.16 55.31 313.44 69.70 328.30 C 84.09 343.15 101.27 362.43 116.92 376.08 C 132.56 389.74 148.96 406.67 163.59 417.76 C 178.22 428.84 189.97 445.31 205.39 455.75 C 220.81 466.20 233.84 487.35 251.75 490.60 C 269.67 493.86 284.68 473.78 299.75 461.74 C 314.83 449.69 330.61 432.71 346.75 419.75 C 362.89 406.80 377.55 389.21 394.25 374.25 C 410.95 359.29 427.89 340.78 440.78 325.78 C 453.66 310.77 467.07 296.11 476.26 280.25 C 485.46 264.39 491.95 255.76 498.71 239.70 C 505.47 223.63 507.38 207.53 512.00 189.00 L 512.00 155.00 C 503.62 123.68 501.84 105.79 483.24 81.77 C 464.63 57.75 439.35 39.54 415.90 31.12 C 392.45 22.69 354.22 16.90 327.75 24.61 C 301.28 32.31 276.03 40.90 257.00 60.00 C 234.91 42.24 211.82 31.61 183.75 24.39 C 155.69 17.18 117.29 22.55 93.77 31.42 C 70.25 40.30 43.98 61.12 26.13 86.08 C 8.28 111.04 4.46 130.98 0.00 167.00 M 287.00 147.00  C 287.00 168.00 287.00 189.00 287.00 210.00 C 307.91 209.34 329.53 211.32 350.00 209.00 C 350.00 230.00 350.00 251.00 350.00 272.00 C 329.50 269.68 307.92 271.66 287.00 271.00 C 287.00 292.00 287.00 313.00 287.00 334.00 C 266.33 334.00 245.67 334.00 225.00 334.00 C 225.00 313.00 225.00 292.00 225.00 271.00 C 204.09 271.66 182.47 269.68 162.00 272.00 C 162.00 251.00 162.00 230.00 162.00 209.00 C 182.50 211.32 204.08 209.34 225.00 210.00 C 225.00 189.00 225.00 168.00 225.00 147.00 C 245.67 147.00 266.33 147.00 287.00 147.00 Z" />
</g>


</g></svg>