<?xml version='1.0' encoding='utf-8'?>
<svg xmlns="http://www.w3.org/2000/svg" viewBox="0 0 512 512" width="64" height="64"><g fill="#000000" fill-opacity="0.98" stroke="None"><path d="M 254.00 512.00  L 258.00 512.00 C 291.43 482.13 321.71 445.67 345.13 416.08 C 368.55 386.50 389.01 355.73 405.57 327.23 C 422.13 298.73 431.63 272.17 442.76 237.75 C 453.88 203.33 445.17 151.03 434.29 122.70 C 423.40 94.36 399.26 57.27 367.70 35.30 C 336.13 13.33 314.27 8.06 273.00 0.00 L 245.00 0.00 C 200.57 5.31 177.56 13.38 145.75 35.61 C 113.95 57.83 87.12 94.07 76.39 123.25 C 65.66 152.43 59.61 202.30 69.41 237.25 C 79.21 272.20 91.46 299.59 108.20 328.75 C 124.94 357.91 143.60 386.86 167.74 416.25 C 191.87 445.63 218.55 480.95 254.00 512.00 M 240.00 26.00  C 261.48 22.34 284.15 28.84 302.25 32.80 C 320.35 36.76 336.15 45.58 351.30 55.71 C 366.46 65.85 387.62 85.60 397.71 101.30 C 407.80 117.00 414.97 132.25 420.57 149.77 C 426.18 167.28 427.93 195.46 426.07 216.07 C 424.22 236.69 417.53 255.19 410.81 271.25 C 404.09 287.32 389.32 305.68 372.25 322.25 C 355.17 338.81 342.22 347.09 324.75 354.76 C 307.29 362.42 292.96 365.89 271.25 368.59 C 249.55 371.30 226.11 366.98 208.75 362.20 C 191.40 357.42 175.99 350.47 160.25 340.61 C 144.50 330.75 125.50 309.49 114.61 294.25 C 103.72 279.00 96.07 263.02 90.09 244.90 C 84.12 226.78 84.20 199.21 85.77 177.77 C 87.34 156.33 93.88 139.48 101.13 123.08 C 108.38 106.68 121.27 89.13 138.75 72.75 C 156.23 56.37 168.91 47.92 186.25 40.24 C 203.59 32.56 218.38 29.68 240.00 26.00 Z" /></g><g transform="translate(256,256) scale(0.55) translate(-256,-370)"><g fill="#000000" fill-opacity="1.00" stroke="None">
<path d=" M 392.00 61.00  C 334.40 90.57 278.63 122.15 221.00 150.00 C 221.00 214.00 221.00 278.00 221.00 342.00 C 278.84 369.91 334.05 401.24 392.00 431.00 C 392.00 307.67 392.00 184.33 392.00 61.00 Z" />
</g>
<g fill="#000000" fill-opacity="0.97" stroke="None">
<path d=" M 488.00 135.00  C 468.11 139.62 451.19 150.95 432.00 156.00 C 432.89 166.33 440.57 174.78 442.00 185.00 C 462.20 177.45 478.90 169.22 499.00 162.00 C 494.27 153.15 490.27 144.15 488.00 135.00 Z" />
</g>
<g fill="#000000" fill-opacity="1.00" stroke="None">
<path d=" M 0.00 243.00  L 0.00 252.00 C 4.81 281.11 27.68 303.07 60.00 301.00 C 60.00 311.00 60.00 321.00 60.00 331.00 C 71.33 331.00 82.67 331.00 94.00 331.00 C 103.94 372.32 117.09 410.92 126.00 452.00 C 158.67 452.00 191.33 452.00 224.00 452.00 C 219.65 436.58 216.75 424.96 212.31 409.70 C 207.87 394.43 204.62 383.84 200.31 367.70 C 196.00 351.56 189.85 340.16 191.00 317.00 C 192.15 293.84 190.40 263.52 191.00 239.00 C 191.60 214.48 190.55 185.89 191.00 161.00 C 147.33 161.00 103.67 161.00 60.00 161.00 C 60.00 171.00 60.00 181.00 60.00 191.00 C 27.34 189.30 2.95 211.64 0.00 243.00 Z" />
</g>
<g fill="#000000" fill-opacity="1.00" stroke="None">
<path d=" M 512.00 261.00  L 512.00 231.00 C 492.00 231.00 472.00 231.00 452.00 231.00 C 452.00 241.00 452.00 251.00 452.00 261.00 C 472.00 261.00 492.00 261.00 512.00 261.00 Z" />
</g>
<g fill="#000000" fill-opacity="0.97" stroke="None">
<path d=" M 499.00 330.00  C 478.93 322.75 461.71 314.32 442.00 307.00 C 440.65 316.83 432.99 325.75 432.00 336.00 C 451.80 341.22 468.29 352.45 488.00 357.00 C 490.38 347.39 494.30 338.64 499.00 330.00 Z" />
</g>
</g></svg>