<?xml version='1.0' encoding='utf-8'?>
<svg xmlns="http://www.w3.org/2000/svg" viewBox="0 0 512 512" width="64" height="64"><g fill="#000000" fill-opacity="0.98" stroke="None"><path d="M 254.00 512.00  L 258.00 512.00 C 291.43 482.13 321.71 445.67 345.13 416.08 C 368.55 386.50 389.01 355.73 405.57 327.23 C 422.13 298.73 431.63 272.17 442.76 237.75 C 453.88 203.33 445.17 151.03 434.29 122.70 C 423.40 94.36 399.26 57.27 367.70 35.30 C 336.13 13.33 314.27 8.06 273.00 0.00 L 245.00 0.00 C 200.57 5.31 177.56 13.38 145.75 35.61 C 113.95 57.83 87.12 94.07 76.39 123.25 C 65.66 152.43 59.61 202.30 69.41 237.25 C 79.21 272.20 91.46 299.59 108.20 328.75 C 124.94 357.91 143.60 386.86 167.74 416.25 C 191.87 445.63 218.55 480.95 254.00 512.00 M 240.00 26.00  C 261.48 22.34 284.15 28.84 302.25 32.80 C 320.35 36.76 336.15 45.58 351.30 55.71 C 366.46 65.85 387.62 85.60 397.71 101.30 C 407.80 117.00 414.97 132.25 420.57 149.77 C 426.18 167.28 427.93 195.46 426.07 216.07 C 424.22 236.69 417.53 255.19 410.81 271.25 C 404.09 287.32 389.32 305.68 372.25 322.25 C 355.17 338.81 342.22 347.09 324.75 354.76 C 307.29 362.42 292.96 365.89 271.25 368.59 C 249.55 371.30 226.11 366.98 208.75 362.20 C 191.40 357.42 175.99 350.47 160.25 340.61 C 144.50 330.75 125.50 309.49 114.61 294.25 C 103.72 279.00 96.07 263.02 90.09 244.90 C 84.12 226.78 84.20 199.21 85.77 177.77 C 87.34 156.33 93.88 139.48 101.13 123.08 C 108.38 106.68 121.27 89.13 138.75 72.75 C 156.23 56.37 168.91 47.92 186.25 40.24 C 203.59 32.56 218.38 29.68 240.00 26.00 Z" /></g><g transform="translate(256,256) scale(0.5) translate(-256,-380)"><g fill="#000000" fill-opacity="1.00" stroke="None">
<path d=" M 203.00 121.00  C 208.08 75.60 163.81 35.14 119.22 41.22 C 75.49 45.26 42.58 93.85 56.02 135.98 C 66.08 178.90 117.87 203.43 157.92 184.92 C 174.02 180.63 169.10 161.26 178.08 150.08 C 183.60 138.96 192.50 128.00 203.00 121.00 Z" />
</g>
<g fill="#000000" fill-opacity="1.00" stroke="None">
<path d=" M 393.00 41.00  C 358.92 37.14 324.52 58.34 313.78 90.78 C 311.08 100.62 303.97 115.91 317.25 120.75 C 334.71 133.82 345.95 152.68 351.00 173.00 C 348.69 187.60 365.21 188.46 375.33 190.67 C 398.96 193.27 421.64 184.67 438.23 168.23 C 482.19 126.77 451.88 45.99 393.00 41.00 Z" />
</g>
<g fill="#000000" fill-opacity="1.00" stroke="None">
<path d=" M 272.00 119.00  C 214.49 107.86 165.25 173.90 192.08 224.92 C 212.48 275.10 287.41 283.70 318.75 239.75 C 355.82 198.03 325.92 125.83 272.00 119.00 Z" />
</g>


<g fill="#000000" fill-opacity="1.00" stroke="None">
<path d=" M 0.00 282.00  L 0.00 372.00 C 36.91 381.77 73.82 391.92 113.00 393.00 C 113.66 384.84 111.67 375.34 114.00 368.00 C 114.21 320.01 148.53 273.80 195.00 261.00 C 179.28 242.75 167.63 220.62 167.00 196.00 C 165.00 196.00 163.00 196.00 161.00 196.00 C 139.00 196.00 117.00 196.00 95.00 196.00 C 47.33 195.63 5.50 235.99 0.00 282.00 Z" />
</g>
<g fill="#000000" fill-opacity="1.00" stroke="None">
<path d=" M 406.00 364.00  C 406.00 373.67 406.00 383.33 406.00 393.00 C 408.67 393.00 411.33 393.00 414.00 393.00 C 448.30 391.62 481.64 384.95 512.00 370.00 L 512.00 280.00 C 506.63 234.47 463.42 195.91 417.00 196.00 C 395.67 196.00 374.33 196.00 353.00 196.00 C 352.71 220.71 340.87 242.87 325.00 261.00 C 369.37 274.08 404.61 317.50 406.00 364.00 Z" />
</g>

<g fill="#000000" fill-opacity="1.00" stroke="None">
<path d=" M 132.00 367.00  C 132.00 394.00 132.00 421.00 132.00 448.00 C 169.74 461.87 210.51 469.63 252.00 471.00 C 260.00 471.00 268.00 471.00 276.00 471.00 C 315.22 470.75 354.10 464.64 388.00 447.00 C 386.34 421.07 386.33 391.86 388.00 366.00 C 387.51 316.84 342.20 272.99 293.00 274.00 C 270.67 274.00 248.33 274.00 226.00 274.00 C 176.53 273.10 132.27 318.02 132.00 367.00 Z" />
</g>

<g fill="#000000" fill-opacity="1" stroke="None">
<path d=" M 388.00 447.00  C 388.00 420.00 388.00 393.00 388.00 366.00 C 386.33 391.86 386.34 421.07 388.00 447.00 Z" />
</g>

<g fill="#000000" fill-opacity="1" stroke="None">
<path d=" M 113.00 393.00  C 115.33 385.66 113.34 376.17 114.00 368.00 C 111.67 375.34 113.66 384.84 113.00 393.00 Z" />
</g>

</g></svg>