<?xml version='1.0' encoding='utf-8'?>
<svg xmlns="http://www.w3.org/2000/svg" viewBox="0 0 512 512" width="64" height="64"><g fill="#000000" fill-opacity="0.98" stroke="None"><path d="M 254.00 512.00  L 258.00 512.00 C 291.43 482.13 321.71 445.67 345.13 416.08 C 368.55 386.50 389.01 355.73 405.57 327.23 C 422.13 298.73 431.63 272.17 442.76 237.75 C 453.88 203.33 445.17 151.03 434.29 122.70 C 423.40 94.36 399.26 57.27 367.70 35.30 C 336.13 13.33 314.27 8.06 273.00 0.00 L 245.00 0.00 C 200.57 5.31 177.56 13.38 145.75 35.61 C 113.95 57.83 87.12 94.07 76.39 123.25 C 65.66 152.43 59.61 202.30 69.41 237.25 C 79.21 272.20 91.46 299.59 108.20 328.75 C 124.94 357.91 143.60 386.86 167.74 416.25 C 191.87 445.63 218.55 480.95 254.00 512.00 M 240.00 26.00  C 261.48 22.34 284.15 28.84 302.25 32.80 C 320.35 36.76 336.15 45.58 351.30 55.71 C 366.46 65.85 387.62 85.60 397.71 101.30 C 407.80 117.00 414.97 132.25 420.57 149.77 C 426.18 167.28 427.93 195.46 426.07 216.07 C 424.22 236.69 417.53 255.19 410.81 271.25 C 404.09 287.32 389.32 305.68 372.25 322.25 C 355.17 338.81 342.22 347.09 324.75 354.76 C 307.29 362.42 292.96 365.89 271.25 368.59 C 249.55 371.30 226.11 366.98 208.75 362.20 C 191.40 357.42 175.99 350.47 160.25 340.61 C 144.50 330.75 125.50 309.49 114.61 294.25 C 103.72 279.00 96.07 263.02 90.09 244.90 C 84.12 226.78 84.20 199.21 85.77 177.77 C 87.34 156.33 93.88 139.48 101.13 123.08 C 108.38 106.68 121.27 89.13 138.75 72.75 C 156.23 56.37 168.91 47.92 186.25 40.24 C 203.59 32.56 218.38 29.68 240.00 26.00 Z" /></g><g transform="translate(256,256) scale(0.45) translate(-256,-400)"><g fill="#000000" fill-opacity="0.99" stroke="None">
<path d=" M 360.00 0.00  L 350.00 0.00 C 334.88 6.48 336.28 28.00 329.40 39.25 C 326.28 53.96 319.62 66.40 316.00 84.00 C 307.65 86.73 294.03 90.66 292.40 100.25 C 286.99 119.15 279.83 135.42 274.00 154.00 C 288.97 164.77 277.33 195.35 257.08 192.07 C 237.46 193.66 225.96 166.23 242.00 152.00 C 233.50 134.20 228.64 114.71 221.19 96.25 C 217.74 89.34 207.04 86.70 200.00 84.00 C 192.65 57.92 184.56 37.81 177.59 13.75 C 177.73 -0.58 149.86 -4.93 146.13 11.08 C 144.13 24.92 150.81 35.27 154.79 46.77 C 156.95 58.28 163.24 71.57 165.09 81.90 C 170.04 91.95 170.61 107.51 183.75 111.81 C 194.22 114.59 203.20 121.67 213.00 124.00 C 212.33 168.18 214.33 213.57 212.00 257.00 C 199.16 227.87 187.66 202.19 174.39 174.75 C 167.03 161.80 166.73 144.66 150.00 136.00 C 143.88 156.11 136.74 171.53 131.00 192.00 C 146.73 203.46 132.65 233.43 112.70 230.31 C 93.96 229.45 83.43 203.04 98.00 192.00 C 92.15 172.04 84.56 155.71 79.00 136.00 C 62.23 143.08 62.52 160.56 55.76 171.75 C 43.92 196.68 32.98 219.41 22.71 244.70 C 16.05 254.21 5.34 276.15 25.26 283.40 C 43.83 287.28 46.92 266.05 52.42 255.77 C 58.25 243.47 63.78 231.77 69.00 219.00 C 71.33 273.35 69.33 329.83 70.00 385.00 C 71.00 407.20 62.79 433.87 88.92 435.92 C 112.06 434.10 106.99 406.85 107.00 385.00 C 107.00 357.33 107.00 329.67 107.00 302.00 C 112.00 302.00 117.00 302.00 122.00 302.00 C 122.00 337.33 122.00 372.67 122.00 408.00 C 114.21 434.03 148.58 444.71 158.07 424.08 C 160.45 394.76 158.23 357.48 159.00 325.00 C 159.00 289.67 159.00 254.33 159.00 219.00 C 166.84 234.57 172.08 246.57 178.42 261.23 C 181.35 274.32 198.39 295.11 212.00 277.00 C 214.91 310.68 211.21 348.48 213.80 381.75 C 214.80 405.42 258.20 399.72 250.00 373.00 C 250.00 336.67 250.00 300.33 250.00 264.00 C 255.00 264.00 260.00 264.00 265.00 264.00 C 262.67 287.47 264.66 312.09 264.00 336.00 C 266.08 355.69 258.00 382.45 273.08 393.87 C 282.78 402.25 303.34 394.05 302.20 380.25 C 301.76 357.64 302.11 333.28 302.00 310.00 C 319.25 322.13 331.37 299.86 334.42 287.77 C 341.30 275.30 344.59 262.03 353.00 250.00 C 353.00 306.33 353.00 362.67 353.00 419.00 C 351.39 440.61 350.83 466.52 373.25 464.60 C 394.82 463.08 390.17 437.50 390.00 416.00 C 390.00 388.00 390.00 360.00 390.00 332.00 C 395.00 332.00 400.00 332.00 405.00 332.00 C 405.00 360.33 405.00 388.67 405.00 417.00 C 403.95 437.55 401.85 466.52 423.92 464.07 C 446.25 465.10 442.63 438.30 442.00 417.00 C 442.00 361.00 442.00 305.00 442.00 249.00 C 449.02 260.06 454.07 273.83 459.29 285.70 C 464.60 294.99 470.60 320.17 489.25 311.39 C 506.66 304.55 495.08 282.84 489.19 273.25 C 478.54 248.91 467.42 223.44 455.39 199.75 C 449.40 187.05 448.09 172.49 433.00 165.00 C 427.54 184.95 419.82 201.60 414.00 221.00 C 429.77 232.37 415.84 264.44 395.25 259.20 C 377.77 259.94 366.43 232.70 381.00 221.00 C 374.77 201.61 368.66 183.49 361.00 165.00 C 346.72 172.83 345.31 190.35 338.13 202.08 C 325.75 227.68 315.46 254.65 302.00 279.00 C 302.07 228.03 301.87 177.06 302.10 126.10 C 312.79 118.75 323.62 115.67 334.08 110.13 C 348.26 104.34 346.33 87.07 351.88 75.90 C 356.50 62.58 360.42 48.98 364.81 37.25 C 369.69 26.63 375.27 6.53 360.00 0.00 Z" />
</g>
<g fill="#000000" fill-opacity="0.98" stroke="None">
<path d=" M 252.00 16.00  C 225.02 20.11 209.99 57.25 230.10 77.90 C 248.60 100.14 286.25 90.65 292.88 64.90 C 301.74 38.78 279.64 13.41 252.00 16.00 Z" />
</g>
<g fill="#000000" fill-opacity="0.98" stroke="None">
<path d=" M 108.00 54.00  C 80.88 59.09 67.56 94.30 85.91 115.08 C 100.20 136.59 141.98 130.26 148.88 104.90 C 160.03 78.03 135.58 50.96 108.00 54.00 Z" />
</g>
<g fill="#000000" fill-opacity="0.98" stroke="None">
<path d=" M 395.00 83.00  C 367.18 84.42 351.33 120.83 366.43 141.23 C 381.43 165.29 420.95 161.97 431.81 136.25 C 442.65 109.83 422.35 82.56 395.00 83.00 Z" />
</g>
<g fill="#000000" fill-opacity="0.95" stroke="None">
<path d=" M 279.00 97.00  C 265.00 97.00 251.00 97.00 237.00 97.00 C 241.91 114.56 248.86 129.76 254.00 147.00 C 256.56 143.89 259.20 145.87 262.00 147.00 C 266.77 129.13 273.52 114.53 279.00 97.00 Z" />
</g>
<g fill="#000000" fill-opacity="0.95" stroke="None">
<path d=" M 136.00 135.00  C 121.67 135.00 107.33 135.00 93.00 135.00 C 98.93 152.00 105.07 167.04 110.00 184.00 C 112.89 182.66 115.69 183.52 119.00 184.00 C 123.29 167.60 130.05 151.18 136.00 135.00 Z" />
</g>
<g fill="#000000" fill-opacity="0.96" stroke="None">
<path d=" M 419.00 165.00  C 404.67 165.00 390.33 165.00 376.00 165.00 C 382.52 181.59 388.61 196.64 393.00 214.00 C 396.44 213.26 398.65 213.24 402.00 214.00 C 406.36 197.58 412.80 181.67 419.00 165.00 Z" />
</g>
<g fill="#000000" fill-opacity="0.99" stroke="None">
<path d=" M 47.00 512.00  L 469.00 512.00 C 467.89 495.60 474.80 472.51 456.00 472.00 C 413.75 472.67 370.83 470.67 329.00 473.00 C 329.53 455.81 327.94 438.11 329.80 421.25 C 327.36 407.91 308.27 412.90 295.00 412.00 C 261.68 412.59 226.26 410.85 194.25 412.81 C 182.12 415.50 188.55 435.17 187.00 448.00 C 143.14 446.26 95.86 446.44 53.00 448.00 C 40.58 462.64 49.89 490.81 47.00 512.00 Z" />
</g>
</g></svg>