<?xml version='1.0' encoding='utf-8'?>
<svg xmlns="http://www.w3.org/2000/svg" viewBox="0 0 512 512" width="64" height="64"><g fill="#000000" fill-opacity="0.98" stroke="None"><path d="M 254.00 512.00  L 258.00 512.00 C 291.43 482.13 321.71 445.67 345.13 416.08 C 368.55 386.50 389.01 355.73 405.57 327.23 C 422.13 298.73 431.63 272.17 442.76 237.75 C 453.88 203.33 445.17 151.03 434.29 122.70 C 423.40 94.36 399.26 57.27 367.70 35.30 C 336.13 13.33 314.27 8.06 273.00 0.00 L 245.00 0.00 C 200.57 5.31 177.56 13.38 145.75 35.61 C 113.95 57.83 87.12 94.07 76.39 123.25 C 65.66 152.43 59.61 202.30 69.41 237.25 C 79.21 272.20 91.46 299.59 108.20 328.75 C 124.94 357.91 143.60 386.86 167.74 416.25 C 191.87 445.63 218.55 480.95 254.00 512.00 M 240.00 26.00  C 261.48 22.34 284.15 28.84 302.25 32.80 C 320.35 36.76 336.15 45.58 351.30 55.71 C 366.46 65.85 387.62 85.60 397.71 101.30 C 407.80 117.00 414.97 132.25 420.57 149.77 C 426.18 167.28 427.93 195.46 426.07 216.07 C 424.22 236.69 417.53 255.19 410.81 271.25 C 404.09 287.32 389.32 305.68 372.25 322.25 C 355.17 338.81 342.22 347.09 324.75 354.76 C 307.29 362.42 292.96 365.89 271.25 368.59 C 249.55 371.30 226.11 366.98 208.75 362.20 C 191.40 357.42 175.99 350.47 160.25 340.61 C 144.50 330.75 125.50 309.49 114.61 294.25 C 103.72 279.00 96.07 263.02 90.09 244.90 C 84.12 226.78 84.20 199.21 85.77 177.77 C 87.34 156.33 93.88 139.48 101.13 123.08 C 108.38 106.68 121.27 89.13 138.75 72.75 C 156.23 56.37 168.91 47.92 186.25 40.24 C 203.59 32.56 218.38 29.68 240.00 26.00 Z" /></g><g transform="translate(256,256) scale(0.5) translate(-275,-400)"><g fill="#000000" fill-opacity="0.99" stroke="None">
<path d=" M 512.00 150.00  L 512.00 57.00 C 481.00 57.00 450.00 57.00 419.00 57.00 C 419.00 88.00 419.00 119.00 419.00 150.00 C 450.00 150.00 481.00 150.00 512.00 150.00 Z" />
</g>
<g fill="#000000" fill-opacity="0.96" stroke="None">
<path d=" M 399.00 63.00  C 384.33 63.00 369.67 63.00 355.00 63.00 C 355.00 77.67 355.00 92.33 355.00 107.00 C 369.67 107.00 384.33 107.00 399.00 107.00 C 399.00 92.33 399.00 77.67 399.00 63.00 Z" />
</g>
<g fill="#000000" fill-opacity="0.99" stroke="None">
<path d=" M 407.00 123.00  C 386.33 123.00 365.67 123.00 345.00 123.00 C 345.00 143.67 345.00 164.33 345.00 185.00 C 365.67 185.00 386.33 185.00 407.00 185.00 C 407.00 164.33 407.00 143.67 407.00 123.00 Z" />
</g>
<g fill="#000000" fill-opacity="0.99" stroke="None">
<path d=" M 0.00 428.00  L 0.00 433.00 C 4.27 443.19 8.06 451.38 18.90 453.09 C 29.74 454.81 48.54 453.86 64.00 454.00 C 79.46 454.14 99.53 453.93 116.00 454.00 C 132.47 454.07 151.08 453.97 168.00 454.00 C 184.92 454.03 202.91 453.98 220.00 454.00 C 237.09 454.02 254.91 453.97 272.00 454.00 C 289.09 454.03 307.06 453.94 324.00 454.00 C 340.94 454.06 359.48 453.86 376.00 454.00 C 392.52 454.14 412.43 453.70 428.00 454.00 C 443.57 454.30 453.09 455.67 460.90 448.90 C 468.71 442.13 474.26 432.52 467.70 424.30 C 461.14 416.08 454.17 408.50 447.70 400.30 C 441.23 392.10 433.97 383.98 427.00 377.00 C 429.33 349.20 427.34 320.24 428.00 292.00 C 419.33 292.00 410.67 292.00 402.00 292.00 C 399.16 309.63 405.68 333.26 402.26 349.25 C 398.85 365.23 380.20 360.52 363.00 361.00 C 345.80 361.48 321.72 360.90 303.00 361.00 C 284.28 361.10 261.22 361.20 242.00 361.00 C 222.78 360.80 201.10 361.64 182.00 361.00 C 162.90 360.36 139.28 362.49 121.00 361.00 C 102.72 359.51 84.38 366.49 73.75 356.25 C 63.12 346.01 68.91 324.43 68.00 307.00 C 67.09 289.57 68.14 264.13 68.00 246.00 C 67.86 227.87 67.43 203.48 68.00 186.00 C 68.57 168.52 63.40 151.66 79.92 148.92 C 96.43 146.18 118.08 148.64 137.00 148.00 C 155.92 147.36 178.51 148.34 198.00 148.00 C 217.49 147.66 238.38 148.25 258.00 148.00 C 258.00 142.67 258.00 137.33 258.00 132.00 C 226.80 133.34 194.67 133.66 163.00 133.00 C 131.33 132.34 99.73 134.67 68.00 133.00 C 36.27 131.33 44.29 157.24 44.00 187.00 C 43.71 216.76 44.15 251.33 44.00 282.00 C 43.85 312.67 44.11 346.08 44.00 377.00 C 28.14 392.82 15.95 411.08 0.00 428.00 M 294.00 412.00  C 297.91 418.29 303.50 422.45 307.00 429.00 C 259.16 428.33 210.01 430.33 163.00 428.00 C 168.95 423.68 172.97 418.52 176.00 412.00 C 215.33 412.00 254.67 412.00 294.00 412.00 M 272.00 437.00  C 273.92 440.50 276.09 442.33 273.00 446.00 C 248.98 445.99 222.00 445.99 198.00 446.00 C 195.95 442.96 195.91 440.13 198.00 437.00 C 222.08 438.67 247.95 438.66 272.00 437.00 Z" />
</g>
<g fill="#000000" fill-opacity="0.96" stroke="None">
<path d=" M 321.00 185.00  C 322.64 173.75 318.82 166.67 321.00 155.00 C 323.18 143.33 317.36 138.97 306.00 141.00 C 294.64 143.03 287.94 139.48 277.00 141.00 C 277.00 155.67 277.00 170.33 277.00 185.00 C 291.67 185.00 306.33 185.00 321.00 185.00 Z" />
</g>
<g fill="#000000" fill-opacity="0.96" stroke="None">
<path d=" M 338.00 196.00  C 323.33 196.00 308.67 196.00 294.00 196.00 C 294.00 210.67 294.00 225.33 294.00 240.00 C 308.67 240.00 323.33 240.00 338.00 240.00 C 338.00 225.33 338.00 210.67 338.00 196.00 Z" />
</g>
<g fill="#000000" fill-opacity="0.98" stroke="None">
<path d=" M 466.00 197.00  C 441.00 197.00 416.00 197.00 391.00 197.00 C 391.00 222.33 391.00 247.67 391.00 273.00 C 416.00 273.00 441.00 273.00 466.00 273.00 C 466.00 247.67 466.00 222.33 466.00 197.00 Z" />
</g>
<g fill="#000000" fill-opacity="0.95" stroke="None">
<path d=" M 266.00 210.00  C 256.45 208.54 250.96 211.95 241.00 210.00 C 231.04 208.05 227.24 213.34 229.00 223.00 C 230.76 232.66 227.68 238.67 229.00 248.00 C 241.33 248.00 253.67 248.00 266.00 248.00 C 266.00 235.33 266.00 222.67 266.00 210.00 Z" />
</g>
<g fill="#000000" fill-opacity="0.96" stroke="None">
<path d=" M 377.00 244.00  C 362.33 244.00 347.67 244.00 333.00 244.00 C 331.36 255.25 335.18 262.33 333.00 274.00 C 330.82 285.67 336.64 290.03 348.00 288.00 C 359.36 285.97 366.06 289.52 377.00 288.00 C 377.00 273.33 377.00 258.67 377.00 244.00 Z" />
</g>
<g fill="#000000" fill-opacity="0.97" stroke="None">
<path d=" M 302.00 256.00  C 289.67 256.00 277.33 256.00 265.00 256.00 C 265.00 268.33 265.00 280.67 265.00 293.00 C 276.73 291.34 290.25 291.34 302.00 293.00 C 302.00 280.67 302.00 268.33 302.00 256.00 Z" />
</g>
<g fill="#000000" fill-opacity="0.92" stroke="None">
<path d=" M 243.00 260.00  C 239.96 257.85 227.72 260.34 224.00 260.00 C 220.28 259.66 208.34 258.11 206.33 261.33 C 204.32 264.55 206.05 276.16 206.00 280.00 C 205.95 283.84 203.99 295.60 207.33 297.67 C 210.67 299.74 222.12 297.89 226.00 298.00 C 229.88 298.11 241.62 299.94 243.67 296.67 C 245.72 293.40 243.98 281.75 244.00 278.00 C 244.02 274.25 246.01 262.13 243.00 260.00 Z" />
</g>
<g fill="#000000" fill-opacity="0.06" stroke="None">
<path d=" M 294.00 412.00  C 254.67 412.00 215.33 412.00 176.00 412.00 C 172.97 418.52 168.95 423.68 163.00 428.00 C 210.01 430.33 259.16 428.33 307.00 429.00 C 303.50 422.45 297.91 418.29 294.00 412.00 Z" />
</g>

</g></svg>